<?xml version="1.0" encoding="UTF-8" standalone="no"?>
<svg
   xmlns:dc="http://purl.org/dc/elements/1.1/"
   xmlns:cc="http://creativecommons.org/ns#"
   xmlns:rdf="http://www.w3.org/1999/02/22-rdf-syntax-ns#"
   xmlns:svg="http://www.w3.org/2000/svg"
   xmlns="http://www.w3.org/2000/svg"
   xmlns:xlink="http://www.w3.org/1999/xlink"
   xmlns:sodipodi="http://sodipodi.sourceforge.net/DTD/sodipodi-0.dtd"
   xmlns:inkscape="http://www.inkscape.org/namespaces/inkscape"
   sodipodi:docname="bt_github.svg"
   inkscape:version="1.0 (1.0+r73+1)"
   width="139px"
   height="45px"
   viewBox="0 0 139 45"
   version="1.1"
   id="SVGRoot">
  <defs
     id="defs474">
    <marker
       inkscape:isstock="true"
       style="overflow:visible"
       id="DotL"
       refX="0.0"
       refY="0.0"
       orient="auto"
       inkscape:stockid="DotL">
      <path
         transform="scale(0.8) translate(7.4, 1)"
         style="fill-rule:evenodd;stroke:#000000;stroke-width:1.0pt"
         d="M -2.5,-1.0 C -2.5,1.7600000 -4.7400000,4.0 -7.5,4.0 C -10.260000,4.0 -12.5,1.7600000 -12.5,-1.0 C -12.5,-3.7600000 -10.260000,-6.0 -7.5,-6.0 C -4.7400000,-6.0 -2.5,-3.7600000 -2.5,-1.0 z "
         id="path1425" />
    </marker>
    <linearGradient
       id="lg1">
      <stop
         stop-color="#3778ae"
         offset="0"
         id="stop230" />
      <stop
         stop-color="#366c99"
         offset="1"
         id="stop232" />
    </linearGradient>
    <linearGradient
       id="lg2">
      <stop
         stop-color="#fff"
         offset="0"
         id="stop235" />
      <stop
         stop-color="#fff"
         stop-opacity="0.165"
         offset="1"
         id="stop237" />
    </linearGradient>
    <linearGradient
       id="lg3">
      <stop
         stop-color="#ffe253"
         offset="0"
         id="stop240" />
      <stop
         stop-color="#ffca1c"
         offset="1"
         id="stop242" />
    </linearGradient>
    <linearGradient
       id="lg4">
      <stop
         stop-color="#000"
         offset="0"
         id="stop245" />
      <stop
         stop-color="#000"
         stop-opacity="0"
         offset="1"
         id="stop247" />
    </linearGradient>
    <linearGradient
       x1="94.693"
       y1="112.511"
       x2="94.693"
       y2="64.053"
       id="lg5"
       xlink:href="#lg2"
       gradientUnits="userSpaceOnUse"
       gradientTransform="matrix(0.353878,0,0,0.353878,-17.3795,-19.412)" />
    <linearGradient
       x1="59.728"
       y1="102"
       x2="142.62"
       y2="102"
       id="lg6"
       xlink:href="#lg1"
       gradientUnits="userSpaceOnUse"
       gradientTransform="matrix(0.353878,0,0,0.353878,-17.3795,-19.412)" />
    <linearGradient
       x1="94.693"
       y1="112.511"
       x2="94.693"
       y2="64.053"
       id="lg7"
       xlink:href="#lg2"
       gradientUnits="userSpaceOnUse"
       gradientTransform="matrix(0.353878,0,0,0.353878,-6.29697,-7.94537)" />
    <linearGradient
       x1="119.191"
       y1="89.13"
       x2="116.965"
       y2="169.279"
       id="lg8"
       xlink:href="#lg3"
       gradientUnits="userSpaceOnUse"
       gradientTransform="matrix(0.353878,0,0,0.353878,-16.3897,-17.997)" />
    <radialGradient
       cx="15.115"
       cy="63.965"
       r="12.289"
       fx="15.115"
       fy="63.965"
       id="rg1"
       xlink:href="#lg4"
       gradientUnits="userSpaceOnUse"
       gradientTransform="matrix(1.6,0,0,0.551754,-0.183975,4.83575)" />
  </defs>
  <sodipodi:namedview
     inkscape:snap-global="true"
     inkscape:window-maximized="1"
     inkscape:window-y="27"
     inkscape:window-x="0"
     inkscape:window-height="960"
     inkscape:window-width="1280"
     showgrid="false"
     inkscape:document-rotation="0"
     inkscape:current-layer="layer1"
     inkscape:document-units="px"
     inkscape:cy="63.643671"
     inkscape:cx="75.434216"
     inkscape:zoom="3.959798"
     inkscape:pageshadow="2"
     inkscape:pageopacity="0.0"
     borderopacity="1.0"
     bordercolor="#666666"
     pagecolor="#ffffff"
     id="base" />
  <metadata
     id="metadata477">
    <rdf:RDF>
      <cc:Work
         rdf:about="">
        <dc:format>image/svg+xml</dc:format>
        <dc:type
           rdf:resource="http://purl.org/dc/dcmitype/StillImage" />
        <dc:title></dc:title>
      </cc:Work>
    </rdf:RDF>
  </metadata>
  <g
     style="display:inline"
     id="layer1"
     inkscape:groupmode="layer"
     inkscape:label="Calque 1">
    <rect
       ry="5"
       rx="5"
       y="0"
       x="0"
       height="45"
       width="139"
       id="rect1634"
       style="opacity:1;fill:#000000;stroke-width:1;stroke-miterlimit:4;stroke-dasharray:none;paint-order:stroke fill markers" />
    <text
       id="text1644"
       y="28.818544"
       x="62.963604"
       style="font-style:normal;font-variant:normal;font-weight:normal;font-stretch:normal;font-size:17.3333px;line-height:1.25;font-family:sans-serif;-inkscape-font-specification:'sans-serif, Normal';font-variant-ligatures:normal;font-variant-caps:normal;font-variant-numeric:normal;font-variant-east-asian:normal;fill:#ffffff;fill-opacity:1;stroke:none"
       xml:space="preserve"><tspan
         y="28.818544"
         x="62.963604"
         id="tspan1642"
         sodipodi:role="line">Github</tspan></text>
    <path
       style="fill:#ffffff;stroke-width:0.0808413"
       d="M 45.917614,3.6601334 H 18.241231 c -2.083591,0 -3.774052,1.7870648 -3.774052,3.9897263 V 36.907851 c 0,2.202661 1.690461,3.989726 3.774052,3.989726 h 27.676383 c 2.083593,0 3.774053,-1.787065 3.774053,-3.989726 V 7.6498597 c 0,-2.2026615 -1.69046,-3.9897263 -3.774053,-3.9897263 z M 36.270195,35.553006 c -0.660462,0.124679 -0.904203,-0.307541 -0.904203,-0.664954 0,-0.448844 0.01572,-2.742936 0.01572,-4.596496 0,-1.296662 -0.408855,-2.119543 -0.888475,-2.551763 2.909167,-0.340789 5.975583,-0.764698 5.975583,-6.076021 0,-1.512771 -0.511069,-2.269156 -1.344505,-3.241652 0.133664,-0.357413 0.581833,-1.828624 -0.133666,-3.740368 -1.092901,-0.357412 -3.593211,1.487836 -3.593211,1.487836 -1.037863,-0.307542 -2.162217,-0.465468 -3.270846,-0.465468 -1.108628,0 -2.232981,0.157926 -3.270845,0.465468 0,0 -2.50031,-1.845248 -3.593211,-1.487836 -0.7155,1.903432 -0.275193,3.374644 -0.133665,3.740368 -0.833438,0.972496 -1.226567,1.728881 -1.226567,3.241652 0,5.286387 2.932751,5.735232 5.841919,6.076021 -0.377405,0.357413 -0.715499,0.972496 -0.833438,1.85356 -0.746948,0.357414 -2.657561,0.972497 -3.79764,-1.155357 -0.715496,-1.313286 -2.004967,-1.421341 -2.004967,-1.421341 -1.27374,-0.01662 -0.08649,0.847817 -0.08649,0.847817 0.849161,0.415596 1.446718,2.011486 1.446718,2.011486 0.762674,2.468643 4.410926,1.63745 4.410926,1.63745 0,1.155359 0.01572,3.033855 0.01572,3.374644 0,0.357413 -0.235878,0.789633 -0.904198,0.664954 -5.189323,-1.836936 -8.821846,-7.056828 -8.821846,-13.157784 0,-7.63035 5.51955,-13.423766 12.737426,-13.423766 7.217874,0 13.067654,5.793416 13.067654,13.423766 0.0079,6.100956 -3.514585,11.329161 -8.703906,13.157784 z m -7.71322,-5.078589 c -0.149391,0.03325 -0.290918,-0.03325 -0.306642,-0.141302 -0.01572,-0.124679 0.08649,-0.232734 0.235878,-0.265982 0.149391,-0.01662 0.290916,0.04987 0.306642,0.157927 0.02358,0.108055 -0.07863,0.21611 -0.235878,0.249357 z m -0.746948,-0.0748 c 0,0.108056 -0.117938,0.199487 -0.275192,0.199487 -0.172977,0.01662 -0.290915,-0.0748 -0.290915,-0.199487 0,-0.108054 0.117938,-0.199486 0.275189,-0.199486 0.14939,-0.01662 0.290918,0.0748 0.290918,0.199486 z m -1.077178,-0.09144 c -0.03145,0.108055 -0.188703,0.157928 -0.322367,0.108055 -0.149388,-0.03325 -0.251604,-0.157926 -0.220152,-0.265981 0.03145,-0.108055 0.188703,-0.157927 0.322368,-0.124679 0.15725,0.04987 0.259463,0.174551 0.220151,0.282605 z m -0.9671,-0.448844 c -0.07076,0.09144 -0.220154,0.0748 -0.338093,-0.04987 -0.117938,-0.108054 -0.149391,-0.265981 -0.07076,-0.340788 0.07076,-0.09144 0.220156,-0.07481 0.338094,0.04987 0.102213,0.108056 0.141526,0.274294 0.07076,0.340789 z M 25.05025,29.102949 c -0.07076,0.04987 -0.204428,0 -0.290915,-0.12468 -0.08649,-0.124678 -0.08649,-0.265981 0,-0.324165 0.08649,-0.0748 0.220152,-0.01662 0.290915,0.108055 0.08649,0.12468 0.08649,0.274294 0,0.34079 z m -0.51107,-0.806258 c -0.07076,0.07481 -0.188702,0.03325 -0.27519,-0.04987 -0.08649,-0.108055 -0.102215,-0.232735 -0.03145,-0.290918 0.07076,-0.0748 0.188702,-0.03325 0.275192,0.04987 0.08649,0.108056 0.102213,0.232734 0.03144,0.290918 z M 24.012387,27.68161 c -0.03145,0.0748 -0.133664,0.09144 -0.220154,0.03325 -0.102214,-0.04987 -0.149388,-0.141303 -0.117939,-0.21611 0.03145,-0.04987 0.117939,-0.0748 0.220155,-0.03325 0.102212,0.05819 0.149387,0.149615 0.117938,0.21611 z"
       id="path599" />
  </g>
  <style
     type="text/css"
     id="style505">
	.st0{fill:#FFFFFF;}
	.st1{fill:#353535;}
	.st2{enable-background:new    ;}
	.st3{fill:#FFFFFF;stroke:#353535;stroke-width:4;stroke-miterlimit:10;}
</style>
</svg>
