<?xml version="1.0" encoding="UTF-8" standalone="no"?>
<svg
   xmlns:dc="http://purl.org/dc/elements/1.1/"
   xmlns:cc="http://creativecommons.org/ns#"
   xmlns:rdf="http://www.w3.org/1999/02/22-rdf-syntax-ns#"
   xmlns:svg="http://www.w3.org/2000/svg"
   xmlns="http://www.w3.org/2000/svg"
   xmlns:sodipodi="http://sodipodi.sourceforge.net/DTD/sodipodi-0.dtd"
   xmlns:inkscape="http://www.inkscape.org/namespaces/inkscape"
   sodipodi:docname="bt_linux.svg"
   inkscape:version="1.0 (1.0+r73+1)"
   width="139px"
   height="45px"
   viewBox="0 0 139 45"
   version="1.1"
   id="SVGRoot">
  <defs
     id="defs474">
    <marker
       inkscape:isstock="true"
       style="overflow:visible"
       id="DotL"
       refX="0.0"
       refY="0.0"
       orient="auto"
       inkscape:stockid="DotL">
      <path
         transform="scale(0.8) translate(7.4, 1)"
         style="fill-rule:evenodd;stroke:#000000;stroke-width:1.0pt"
         d="M -2.5,-1.0 C -2.5,1.7600000 -4.7400000,4.0 -7.5,4.0 C -10.260000,4.0 -12.5,1.7600000 -12.5,-1.0 C -12.5,-3.7600000 -10.260000,-6.0 -7.5,-6.0 C -4.7400000,-6.0 -2.5,-3.7600000 -2.5,-1.0 z "
         id="path1425" />
    </marker>
  </defs>
  <sodipodi:namedview
     inkscape:snap-global="true"
     inkscape:window-maximized="1"
     inkscape:window-y="27"
     inkscape:window-x="0"
     inkscape:window-height="960"
     inkscape:window-width="1280"
     showgrid="false"
     inkscape:document-rotation="0"
     inkscape:current-layer="layer1"
     inkscape:document-units="px"
     inkscape:cy="17.406767"
     inkscape:cx="129.32467"
     inkscape:zoom="3.959798"
     inkscape:pageshadow="2"
     inkscape:pageopacity="0.0"
     borderopacity="1.0"
     bordercolor="#666666"
     pagecolor="#ffffff"
     id="base" />
  <metadata
     id="metadata477">
    <rdf:RDF>
      <cc:Work
         rdf:about="">
        <dc:format>image/svg+xml</dc:format>
        <dc:type
           rdf:resource="http://purl.org/dc/dcmitype/StillImage" />
        <dc:title />
      </cc:Work>
    </rdf:RDF>
  </metadata>
  <g
     style="display:inline"
     id="layer1"
     inkscape:groupmode="layer"
     inkscape:label="Calque 1">
    <rect
       ry="5"
       rx="5"
       y="0"
       x="0"
       height="45"
       width="139"
       id="rect1634"
       style="opacity:1;fill:#000000;stroke-width:1;stroke-miterlimit:4;stroke-dasharray:none;paint-order:stroke fill markers" />
    <text
       id="text1640"
       y="18.919188"
       x="65.509773"
       style="font-style:normal;font-variant:normal;font-weight:normal;font-stretch:normal;font-size:16px;line-height:1.25;font-family:'Liberation Mono';-inkscape-font-specification:'Liberation Mono, Normal';font-variant-ligatures:normal;font-variant-caps:normal;font-variant-numeric:normal;font-variant-east-asian:normal;fill:#ffffff;fill-opacity:1;stroke:none"
       xml:space="preserve"><tspan
         y="18.919188"
         x="65.509773"
         id="tspan1638"
         sodipodi:role="line">Linux</tspan></text>
    <text
       id="text1644"
       y="38.482872"
       x="45.975403"
       style="font-style:normal;font-variant:normal;font-weight:normal;font-stretch:normal;font-size:17.3333px;line-height:1.25;font-family:sans-serif;-inkscape-font-specification:'sans-serif, Normal';font-variant-ligatures:normal;font-variant-caps:normal;font-variant-numeric:normal;font-variant-east-asian:normal;fill:#ffffff;fill-opacity:1;stroke:none"
       xml:space="preserve"><tspan
         y="38.482872"
         x="45.975403"
         id="tspan1642"
         sodipodi:role="line">Download</tspan></text>
    <path
       style="fill:#ffffff;stroke-width:0.132231"
       id="path1730"
       d="m 20.501617,12.61667 c 0,0.127174 -0.137485,0.127174 -0.137485,0.127174 H 20.22664 c -0.137485,0 -0.137485,-0.127174 -0.27497,-0.254348 0,0 -0.137484,-0.127181 -0.137484,-0.254355 0,-0.127181 0,-0.127181 0.137484,-0.127181 l 0.27497,0.127181 c 0.137492,0.127174 0.274977,0.254355 0.274977,0.381529 m -2.474763,-1.271768 c 0,-0.635884 -0.27497,-1.01742 -0.687432,-1.01742 0,0 0,0.127181 -0.137485,0.127181 v 0.254355 h 0.412455 c 0,0.254355 0.137492,0.381529 0.137492,0.635884 h 0.27497 m 4.812034,-0.635884 c 0.274977,0 0.412462,0.254355 0.549947,0.635884 h 0.274977 c -0.137485,-0.127181 -0.137485,-0.254355 -0.137485,-0.381529 0,-0.127181 0,-0.254355 -0.137492,-0.381536 -0.137485,-0.127174 -0.27497,-0.254355 -0.412455,-0.254355 0,0 -0.137492,0.127181 -0.274977,0.127181 0,0.127174 0.137485,0.127174 0.137485,0.254355 m -4.124596,2.034826 c -0.137492,0 -0.137492,0 -0.137492,-0.127174 0,-0.127174 0,-0.254355 0.137492,-0.381529 0.27497,0 0.412455,-0.127181 0.412455,-0.127181 0.137492,0 0.137492,0.127181 0.137492,0.127181 0,0.127174 -0.137492,0.254355 -0.412462,0.508703 H 18.714292 M 17.201937,12.61667 c -0.549946,-0.254355 -0.687438,-0.635884 -0.687438,-1.271768 0,-0.381529 0,-0.635884 0.274977,-0.890239 0.137484,-0.254355 0.412461,-0.381529 0.687431,-0.381529 0.274977,0 0.412462,0.127174 0.687439,0.381529 0.137485,0.381529 0.274969,0.763058 0.274969,1.144594 v 0.127174 0.127181 H 18.5768 v -0.127181 c 0.137492,0 0.137492,-0.254355 0.137492,-0.763058 0,-0.381536 0,-0.763065 -0.274977,-1.1445941 -0.274969,-0.3815367 -0.549946,-0.6358841 -1.099893,-0.6358841 -0.412462,0 -0.824923,0.2543474 -0.962408,0.6358841 -0.27497,0.5087031 -0.32997,0.8902391 -0.32997,1.5261231 0,0.50871 0.192485,1.017413 0.742432,1.526123 0.137484,-0.127181 0.274969,-0.127181 0.412461,-0.254355 m 17.185837,17.931957 c 0.137492,0 0.137492,-0.05083 0.137492,-0.165333 0,-0.279787 -0.137492,-0.610445 -0.549947,-0.979262 -0.412462,-0.381529 -1.0999,-0.623164 -1.924816,-0.724906 -0.137485,-0.01273 -0.274978,-0.01273 -0.274978,-0.01273 -0.137484,-0.02546 -0.137484,-0.02546 -0.274969,-0.02546 -0.137485,-0.01273 -0.412462,-0.03818 -0.549947,-0.06356 0.412462,-1.182746 0.549947,-2.225598 0.549947,-3.141276 0,-1.271768 -0.274977,-2.162008 -0.824924,-2.925065 -0.549946,-0.763066 -1.099893,-1.144595 -1.787324,-1.271776 -0.137485,0.127181 -0.137485,0.127181 -0.137485,0.254355 0.687431,0.254355 1.374863,0.763066 1.787325,1.526123 0.412461,0.890239 0.549946,1.653305 0.549946,2.543544 0,0.712187 -0.137485,1.767759 -0.687431,3.115837 -0.549947,0.203484 -1.099893,0.674035 -1.512355,1.411661 0,0.114462 0,0.178045 0.137485,0.178045 0,0 0.137484,-0.114454 0.274977,-0.330658 0.274969,-0.216196 0.412454,-0.4324 0.687431,-0.648603 0.412462,-0.216196 0.687431,-0.330658 1.099893,-0.330658 0.687431,0 1.37487,0.08902 1.787325,0.267075 0.549946,0.165325 0.824923,0.343377 0.962408,0.546861 0.137492,0.190765 0.274977,0.368809 0.412462,0.534142 0,0.165325 0.137485,0.241636 0.137485,0.241636 M 21.738995,12.10796 C 21.60151,11.980786 21.60151,11.726431 21.60151,11.472076 c 0,-0.508703 0,-0.763058 0.274977,-1.144594 0.27497,-0.254348 0.549947,-0.3815291 0.824916,-0.3815291 0.412462,0 0.687432,0.2543551 0.962409,0.5087101 0.137484,0.381529 0.274969,0.635884 0.274969,1.017413 0,0.635884 -0.274969,1.01742 -0.824916,1.144594 0,0 0.137485,0.127174 0.27497,0.127174 0.274977,0 0.412461,0.127181 0.687438,0.254355 0.137485,-0.763058 0.27497,-1.271768 0.27497,-1.907652 0,-0.763065 -0.137485,-1.2717681 -0.412462,-1.6533048 -0.412454,-0.3815288 -0.824916,-0.5087025 -1.374863,-0.5087025 -0.412461,0 -0.824923,0.1271737 -1.237377,0.3815288 -0.274978,0.3815289 -0.412462,0.6358844 -0.412462,1.0174135 0,0.635891 0.137484,1.144594 0.412462,1.653304 0.137484,0 0.274969,0.127174 0.412454,0.127174 m 1.64984,2.034833 c -1.787325,1.144595 -3.162195,1.653305 -4.262088,1.653305 -0.962401,0 -1.92481,-0.381537 -2.749733,-1.017421 0.137485,0.254355 0.274977,0.508711 0.412462,0.635884 l 0.824916,0.763066 c 0.549954,0.50871 1.237385,0.763057 1.924817,0.763057 0.962408,0 2.062301,-0.508702 3.437171,-1.398941 l 1.237378,-0.763066 c 0.274977,-0.254355 0.549947,-0.508702 0.549947,-0.890239 0,-0.127174 0,-0.254355 -0.137485,-0.254355 -0.137485,-0.254347 -0.824924,-0.635884 -2.199786,-1.017413 -1.237386,-0.50871 -2.199794,-0.763058 -2.749741,-0.763058 -0.412454,0 -1.099893,0.254348 -2.062301,0.763058 -0.824916,0.50871 -1.374863,1.017413 -1.374863,1.526123 0,0 0.137485,0.127182 0.27497,0.381529 0.824923,0.635892 1.649847,1.017421 2.474763,1.017421 1.099893,0 2.474763,-0.508711 4.262088,-1.780479 v 0.254356 c 0.137485,0 0.137485,0.127173 0.137485,0.127173 m 3.162194,25.689754 c 0.549947,0.956367 1.512355,1.437101 2.612248,1.437101 0.274977,0 0.549947,-0.03818 0.824924,-0.114462 0.27497,-0.05091 0.549947,-0.139894 0.687431,-0.241636 0.137493,-0.08902 0.274977,-0.178052 0.412462,-0.279794 0.274977,-0.08902 0.274977,-0.152605 0.412462,-0.216196 l 2.337271,-1.869501 c 0.549947,-0.405695 1.099893,-0.76052 1.787332,-1.068291 0.549947,-0.305219 1.099893,-0.508703 1.374863,-0.623165 0.412461,-0.101742 0.687439,-0.254355 0.962408,-0.457839 0.137485,-0.190764 0.274977,-0.4324 0.274977,-0.737626 0,-0.368809 -0.274977,-0.648604 -0.549946,-0.852088 -0.274978,-0.203476 -0.549947,-0.343377 -0.824924,-0.4324 -0.27497,-0.08902 -0.549947,-0.292506 -0.962408,-0.635884 -0.27497,-0.330658 -0.549947,-0.788497 -0.687432,-1.386229 L 35.075212,31.61691 c -0.137492,-0.343377 -0.137492,-0.597732 -0.274977,-0.737626 0,-0.03818 0,-0.05091 -0.137484,-0.05091 -0.137485,0 -0.412462,0.114462 -0.549947,0.330658 -0.274977,0.216203 -0.549947,0.457839 -0.824924,0.712194 -0.137484,0.254355 -0.549946,0.483271 -0.824916,0.699475 -0.412461,0.216196 -0.824923,0.330658 -1.099893,0.330658 -1.0999,0 -1.649847,-0.279787 -2.062301,-0.826649 -0.274977,-0.406968 -0.412462,-0.877519 -0.549947,-1.411669 -0.274977,-0.216196 -0.412462,-0.330658 -0.687439,-0.330658 -0.687431,0 -0.962408,0.661324 -0.962408,1.996682 v 0.419681 1.475252 1.131874 0.546862 0.381536 c 0,0.114454 -0.137485,0.36881 -0.137485,0.763058 -0.137485,0.394249 -0.137485,0.841914 -0.137485,1.348079 l -0.274977,1.411661 v 0.0216 M 6.6154604,39.155904 c 1.2786204,0.172962 2.7497329,0.543044 4.4133226,1.107708 1.663589,0.559582 2.68099,0.852088 3.052202,0.852088 0.962409,0 1.759832,-0.394248 2.419771,-1.156041 0.137485,-0.246719 0.137485,-0.536688 0.137485,-0.869891 0,-1.201821 -0.783674,-2.721588 -2.351021,-4.56565 L 13.352304,33.366804 C 13.159827,33.125169 12.926099,32.756352 12.62363,32.260362 12.334903,31.764379 12.073683,31.382842 11.867449,31.115775 11.688714,30.823268 11.399995,30.530762 11.028783,30.238248 10.671314,29.945741 10.258859,29.754977 9.8051476,29.653235 9.2277085,29.754977 8.8289967,29.933029 8.636512,30.174665 8.4440273,30.4163 8.3340425,30.683367 8.3065426,30.963162 c -0.04128,0.267067 -0.1237348,0.445119 -0.2612196,0.534142 -0.1374923,0.07629 -0.3712194,0.139893 -0.6874388,0.203484 -0.06875,0 -0.1924772,0 -0.3712119,0.01273 H 6.6154604 c -0.7286813,0 -1.2236354,0.07629 -1.4848625,0.203477 -0.3437119,0.368817 -0.5224466,0.788497 -0.5224466,1.233616 0,0.203484 0.055015,0.546862 0.1649847,1.030141 0.1099923,0.470551 0.1649848,0.85208 0.1649848,1.119155 0,0.521422 -0.1649848,1.042852 -0.5087042,1.564274 -0.3437119,0.546862 -0.5224466,0.95383 -0.5224466,1.243791 0.1374847,0.493445 1.0449007,0.840641 2.7084904,1.044125 M 11.193767,27.591705 c 0,-0.87752 0.247477,-1.844062 0.756174,-2.988656 0.494954,-1.144594 0.989908,-1.90766 1.471113,-2.416362 -0.02747,-0.127182 -0.09624,-0.127182 -0.206235,-0.127182 l -0.137485,-0.127173 c -0.398712,0.381529 -0.879916,1.271768 -1.457362,2.543536 -0.577439,1.144594 -0.879916,2.200166 -0.879916,2.975943 0,0.572294 0.151242,1.068284 0.426211,1.500692 0.30247,0.41968 1.031151,1.030132 2.186037,1.80591 l 1.457362,0.877519 c 1.553598,1.246337 2.378521,2.111136 2.378521,2.619847 0,0.267074 -0.137484,0.534141 -0.549946,0.826648 -0.274977,0.305226 -0.646189,0.457839 -0.962408,0.457839 -0.02747,0 -0.04121,0.02546 -0.04121,0.08902 0,0.01273 0.137484,0.267074 0.426204,0.763065 0.577446,0.724906 1.814824,1.081004 3.464664,1.081004 3.02471,0 5.361981,-1.144595 7.149313,-3.433776 0,-0.635891 0,-1.03014 -0.137485,-1.195465 v -0.470559 c 0,-0.826648 0.137485,-1.449813 0.412455,-1.856781 0.274977,-0.406968 0.549946,-0.597732 0.962408,-0.597732 0.274977,0 0.549947,0.08902 0.824924,0.279786 0.137484,-0.979261 0.137484,-1.831349 0.137484,-2.594407 0,-1.157314 0,-2.111136 -0.274969,-3.001375 -0.137492,-0.763065 -0.412462,-1.398949 -0.687439,-1.90766 -0.27497,-0.381528 -0.549947,-0.763057 -0.824916,-1.144586 -0.274977,-0.381537 -0.412462,-0.763066 -0.687439,-1.144594 -0.137485,-0.508711 -0.27497,-0.89024 -0.27497,-1.526124 -0.412461,-0.635884 -0.687431,-1.271775 -1.099893,-1.907659 -0.274977,-0.635884 -0.549946,-1.271768 -0.824923,-1.780479 l -1.237378,0.89024 c -1.37487,0.890239 -2.474764,1.271775 -3.437172,1.271775 -0.824916,0 -1.512355,-0.127181 -1.924809,-0.635891 l -0.824924,-0.635884 c 0,0.381536 -0.137485,0.890239 -0.412462,1.398949 l -0.866166,1.526123 c -0.384962,0.890239 -0.591189,1.39895 -0.632439,1.780478 -0.05502,0.254356 -0.09624,0.508711 -0.123734,0.508711 l -1.031151,1.907652 c -1.113643,1.907652 -1.67734,3.675418 -1.67734,5.13795 0,0.292507 0.02747,0.597733 0.08249,0.902959 -0.618689,-0.394248 -0.921158,-0.94111 -0.921158,-1.653304 m 9.844046,12.03094 c -1.787324,0 -3.162195,0.223833 -4.124603,0.667679 v -0.03818 c -0.687431,0.763066 -1.457355,1.157314 -2.529756,1.157314 -0.673682,0 -1.732332,-0.241635 -3.162195,-0.724914 C 9.7776926,40.226711 8.4990648,39.875697 7.3854217,39.644235 7.2754293,39.615001 7.0279523,39.571728 6.6292404,39.513243 6.2442786,39.456009 5.8868167,39.397517 5.5705972,39.339017 5.2818702,39.281782 4.9519083,39.195305 4.5944389,39.078298 4.2507269,38.977829 3.9757499,38.846837 3.7695227,38.687868 3.5797851,38.527626 3.4862972,38.347036 3.4862972,38.144824 c 0,-0.203484 0.046759,-0.42096 0.1402393,-0.652422 0.087986,-0.139893 0.1842287,-0.279786 0.280471,-0.406968 0.096242,-0.139893 0.1787347,-0.267067 0.2337271,-0.394248 0.082492,-0.114454 0.1374848,-0.228916 0.1924772,-0.35609 0.055015,-0.114462 0.1099923,-0.228923 0.1374923,-0.368817 0.02747,-0.127173 0.055015,-0.254355 0.055015,-0.381529 0,-0.127181 -0.055015,-0.50871 -0.1649848,-1.182745 -0.1099848,-0.661324 -0.1649847,-1.081004 -0.1649847,-1.259056 0,-0.559574 0.1374848,-1.004693 0.4399618,-1.322639 0.3024695,-0.317946 0.591189,-0.483271 0.8936585,-0.483271 h 1.5810973 c 0.1237423,0 0.3162195,-0.06356 0.6049465,-0.216204 0.096235,-0.203484 0.1787272,-0.368809 0.2337271,-0.521422 0.06875,-0.152613 0.096242,-0.267075 0.1237348,-0.317946 0.02747,-0.07629 0.055015,-0.152613 0.082492,-0.216196 0.055015,-0.08903 0.1237423,-0.190772 0.2199771,-0.292507 C 8.2653599,29.645583 8.21036,29.48025 8.21036,29.276774 c 0,-0.139901 0,-0.267075 0.02747,-0.343378 0,-0.457839 0.2337271,-1.106443 0.7286813,-1.95853 l 0.4812044,-0.801217 c 0.3987118,-0.686755 0.7011813,-1.195458 0.9211583,-1.704168 0.233727,-0.50871 0.481204,-1.271768 0.756181,-2.289189 0.219977,-0.890239 0.742424,-1.780478 1.567347,-2.670717 l 1.031151,-1.144587 c 0.714932,-0.763065 1.182386,-1.398949 1.443605,-1.907659 0.261227,-0.508703 0.398712,-1.144595 0.398712,-1.653297 0,-0.254355 -0.06875,-1.017421 -0.219977,-2.289189 -0.137485,-1.271768 -0.206227,-2.5435361 -0.206227,-3.6881302 0,-0.8902392 0.08249,-1.5261232 0.261219,-2.1620072 0.178735,-0.6358917 0.494955,-1.2717757 0.962409,-1.7804782 0.412462,-0.5087103 0.962408,-1.0174206 1.787332,-1.2717757 0.824916,-0.2543552 1.787324,-0.3815289 2.887218,-0.3815289 0.412461,0 0.824923,0 1.237385,0.1271737 0.412454,0 0.962401,0.1271814 1.64984,0.3815366 0.549946,0.2543551 1.099893,0.5087026 1.512355,0.8902391 0.549946,0.3815289 0.962401,1.0174129 1.374862,1.6532969 0.274977,0.7630654 0.549947,1.5261231 0.687432,2.5435437 0.137492,0.635884 0.137492,1.2717682 0.274977,2.1620072 0,0.763065 0.137484,1.271768 0.137484,1.653305 0.137485,0.381528 0.137485,0.890239 0.274978,1.526123 0.137484,0.508702 0.274969,1.017413 0.549946,1.398942 0.27497,0.50871 0.549947,1.01742 0.962408,1.526123 0.412455,0.635884 0.962401,1.271775 1.512348,2.034833 1.237385,1.271768 2.199794,2.670717 2.74974,4.069667 0.687432,1.271768 1.099893,2.925065 1.099893,4.692831 0,0.877519 -0.137484,1.729607 -0.412461,2.556256 0.274977,0 0.412461,0.101742 0.549946,0.279787 0.137485,0.178052 0.274977,0.559581 0.412462,1.157313 l 0.137485,0.941111 c 0.137485,0.279786 0.274977,0.546861 0.687431,0.775777 0.274977,0.228916 0.549954,0.41968 0.962409,0.572293 0.274977,0.127182 0.687438,0.305226 0.962408,0.53415 0.274977,0.254347 0.412462,0.521422 0.412462,0.801209 0,0.432408 -0.137485,0.750346 -0.412462,0.979262 -0.27497,0.254355 -0.549947,0.432407 -0.962408,0.546861 -0.27497,0.127182 -0.824917,0.381537 -1.64984,0.740172 -0.687432,0.376445 -1.374863,0.833012 -2.062302,1.37351 l -1.374862,1.082276 c -0.549947,0.495991 -1.099901,0.852088 -1.512355,1.068292 -0.412462,0.228915 -0.962409,0.343377 -1.512355,0.343377 l -0.962409,-0.101742 c -1.099893,-0.267075 -1.787324,-0.775777 -2.199786,-1.551562 -2.199786,-0.246719 -3.987118,-0.36881 -5.087011,-0.36881" />
  </g>
</svg>
