<?xml version="1.0" encoding="UTF-8" standalone="no"?>
<svg
   xmlns:dc="http://purl.org/dc/elements/1.1/"
   xmlns:cc="http://creativecommons.org/ns#"
   xmlns:rdf="http://www.w3.org/1999/02/22-rdf-syntax-ns#"
   xmlns:svg="http://www.w3.org/2000/svg"
   xmlns="http://www.w3.org/2000/svg"
   xmlns:sodipodi="http://sodipodi.sourceforge.net/DTD/sodipodi-0.dtd"
   xmlns:inkscape="http://www.inkscape.org/namespaces/inkscape"
   id="SVGRoot"
   version="1.1"
   viewBox="0 0 139 45"
   height="45px"
   width="139px"
   inkscape:version="1.0 (1.0+r73+1)"
   sodipodi:docname="bt_macos.svg">
  <defs
     id="defs474">
    <marker
       inkscape:stockid="DotL"
       orient="auto"
       refY="0.0"
       refX="0.0"
       id="DotL"
       style="overflow:visible"
       inkscape:isstock="true">
      <path
         id="path1425"
         d="M -2.5,-1.0 C -2.5,1.7600000 -4.7400000,4.0 -7.5,4.0 C -10.260000,4.0 -12.5,1.7600000 -12.5,-1.0 C -12.5,-3.7600000 -10.260000,-6.0 -7.5,-6.0 C -4.7400000,-6.0 -2.5,-3.7600000 -2.5,-1.0 z "
         style="fill-rule:evenodd;stroke:#000000;stroke-width:1.0pt"
         transform="scale(0.8) translate(7.4, 1)" />
    </marker>
  </defs>
  <sodipodi:namedview
     id="base"
     pagecolor="#ffffff"
     bordercolor="#666666"
     borderopacity="1.0"
     inkscape:pageopacity="0.0"
     inkscape:pageshadow="2"
     inkscape:zoom="3.959798"
     inkscape:cx="129.32467"
     inkscape:cy="17.406767"
     inkscape:document-units="px"
     inkscape:current-layer="layer1"
     inkscape:document-rotation="0"
     showgrid="false"
     inkscape:window-width="1280"
     inkscape:window-height="960"
     inkscape:window-x="0"
     inkscape:window-y="27"
     inkscape:window-maximized="1"
     inkscape:snap-global="true" />
  <metadata
     id="metadata477">
    <rdf:RDF>
      <cc:Work
         rdf:about="">
        <dc:format>image/svg+xml</dc:format>
        <dc:type
           rdf:resource="http://purl.org/dc/dcmitype/StillImage" />
        <dc:title></dc:title>
      </cc:Work>
    </rdf:RDF>
  </metadata>
  <g
     inkscape:label="Calque 1"
     inkscape:groupmode="layer"
     id="layer1"
     style="display:inline">
    <rect
       style="opacity:1;fill:#000000;stroke-width:1;stroke-miterlimit:4;stroke-dasharray:none;paint-order:stroke fill markers"
       id="rect1634"
       width="139"
       height="45"
       x="0"
       y="0"
       rx="5"
       ry="5" />
    <text
       xml:space="preserve"
       style="font-style:normal;font-variant:normal;font-weight:normal;font-stretch:normal;font-size:16px;line-height:1.25;font-family:'Liberation Mono';-inkscape-font-specification:'Liberation Mono, Normal';font-variant-ligatures:normal;font-variant-caps:normal;font-variant-numeric:normal;font-variant-east-asian:normal;fill:#ffffff;fill-opacity:1;stroke:none"
       x="65.509773"
       y="18.919188"
       id="text1640"><tspan
         sodipodi:role="line"
         id="tspan1638"
         x="65.509773"
         y="18.919188">mac os</tspan></text>
    <text
       xml:space="preserve"
       style="font-style:normal;font-variant:normal;font-weight:normal;font-stretch:normal;font-size:17.3333px;line-height:1.25;font-family:sans-serif;-inkscape-font-specification:'sans-serif, Normal';font-variant-ligatures:normal;font-variant-caps:normal;font-variant-numeric:normal;font-variant-east-asian:normal;fill:#ffffff;fill-opacity:1;stroke:none"
       x="45.975403"
       y="38.482872"
       id="text1644"><tspan
         sodipodi:role="line"
         id="tspan1642"
         x="45.975403"
         y="38.482872">Download</tspan></text>
    <path
       style="fill:#ffffff;stroke-width:0.84088"
       d="m 25.460837,17.090773 v -0.288432 l -0.891217,0.06157 c -0.252358,0.01602 -0.441837,0.07 -0.569273,0.161083 -0.127437,0.09193 -0.191155,0.219276 -0.191155,0.382046 0,0.158553 0.06288,0.285058 0.189478,0.378672 0.12576,0.09446 0.295116,0.140842 0.506393,0.140842 0.134982,0 0.26158,-0.02108 0.378118,-0.06241 0.116537,-0.04133 0.218822,-0.09952 0.304338,-0.173734 0.08552,-0.07337 0.152589,-0.161083 0.200378,-0.26313 0.04863,-0.102048 0.07294,-0.214216 0.07294,-0.336504 z M 23.707746,5.4792856 c -9.707818,0 -17.3967719,7.7345254 -17.3967719,17.4998814 0,9.766199 7.6889539,17.499881 17.3967719,17.499881 9.707818,0 17.396771,-7.733682 17.396771,-17.499881 0,-9.765356 -7.688115,-17.4998814 -17.396771,-17.4998814 z m 3.377069,10.3725794 c 0.08216,-0.231926 0.197863,-0.43096 0.347936,-0.596261 0.150073,-0.1653 0.330329,-0.292648 0.541605,-0.382045 0.211277,-0.0894 0.446867,-0.134096 0.705932,-0.134096 0.233913,0 0.44519,0.03542 0.632991,0.105421 0.18864,0.07 0.349612,0.164457 0.484594,0.283372 0.134983,0.118915 0.242298,0.257227 0.321107,0.41578 0.07881,0.158553 0.12576,0.326384 0.141689,0.502647 h -0.698386 c -0.01761,-0.09699 -0.04947,-0.188071 -0.09474,-0.271564 -0.04527,-0.08349 -0.104799,-0.156023 -0.178579,-0.217589 -0.07462,-0.06157 -0.16181,-0.109638 -0.26158,-0.144216 -0.100608,-0.03542 -0.212953,-0.05229 -0.339551,-0.05229 -0.148397,0 -0.283379,0.03036 -0.40327,0.09024 -0.12073,0.05988 -0.223853,0.145059 -0.309369,0.254697 -0.08552,0.109638 -0.15175,0.243733 -0.198701,0.4006 -0.04779,0.157709 -0.07126,0.332286 -0.07126,0.524574 0,0.199035 0.02348,0.377829 0.07126,0.534696 0.04695,0.157709 0.114023,0.290118 0.201216,0.398912 0.08636,0.108795 0.191155,0.192288 0.312723,0.249637 0.121567,0.05735 0.255711,0.08687 0.401593,0.08687 0.238943,0 0.433452,-0.0565 0.584363,-0.169517 0.150912,-0.113011 0.248166,-0.278311 0.29344,-0.4959 h 0.699224 c -0.02012,0.192288 -0.07294,0.367708 -0.158457,0.526262 -0.08552,0.158553 -0.196185,0.293492 -0.332006,0.405659 -0.136659,0.112168 -0.296793,0.199035 -0.481241,0.259758 -0.184447,0.06072 -0.38734,0.09193 -0.607839,0.09193 -0.26158,0 -0.49717,-0.04385 -0.709285,-0.130722 -0.211276,-0.08687 -0.393209,-0.212529 -0.544121,-0.375299 -0.150911,-0.16277 -0.267449,-0.360961 -0.349612,-0.594574 -0.08216,-0.233613 -0.123244,-0.4959 -0.123244,-0.788549 -0.0017,-0.285902 0.0394,-0.545659 0.121567,-0.778429 z m -9.937539,-1.06433 h 0.699225 v 0.624936 h 0.01341 c 0.04276,-0.103734 0.09893,-0.197348 0.16768,-0.278311 0.06875,-0.08181 0.147558,-0.150963 0.238105,-0.209156 0.08971,-0.05819 0.189478,-0.102047 0.296793,-0.132408 0.108154,-0.03036 0.222176,-0.04554 0.341229,-0.04554 0.25655,0 0.473695,0.06157 0.649758,0.184697 0.176903,0.123132 0.302662,0.300239 0.376441,0.531322 h 0.01761 c 0.04695,-0.111325 0.108992,-0.210842 0.185286,-0.298552 0.07629,-0.08771 0.164326,-0.163614 0.263257,-0.226023 0.09893,-0.06241 0.207923,-0.109638 0.326137,-0.142529 0.118214,-0.03289 0.242297,-0.04891 0.373088,-0.04891 0.180255,0 0.343743,0.02867 0.491301,0.08687 0.147558,0.05819 0.273318,0.139155 0.378118,0.244576 0.1048,0.105421 0.185286,0.233613 0.241459,0.383733 0.05617,0.150119 0.08468,0.317106 0.08468,0.50096 v 2.514079 h -0.729407 v -2.337815 c 0,-0.242047 -0.06204,-0.430118 -0.186124,-0.562526 -0.123245,-0.132409 -0.300147,-0.199035 -0.529868,-0.199035 -0.112346,0 -0.215469,0.02024 -0.309369,0.05988 -0.09306,0.03964 -0.174387,0.0953 -0.241459,0.166987 -0.06791,0.07084 -0.12073,0.156866 -0.158457,0.256384 -0.03857,0.09952 -0.05785,0.208311 -0.05785,0.326383 v 2.289743 h -0.719346 v -2.398538 c 0,-0.106264 -0.01677,-0.202408 -0.04947,-0.288431 -0.0327,-0.08602 -0.07881,-0.159397 -0.140012,-0.220963 -0.06037,-0.06157 -0.134982,-0.107951 -0.221337,-0.140842 -0.08719,-0.03289 -0.184448,-0.04976 -0.292601,-0.04976 -0.112346,0 -0.216307,0.02108 -0.312723,0.06325 -0.09558,0.04217 -0.177741,0.100361 -0.246489,0.174577 -0.06875,0.07506 -0.122407,0.16277 -0.160134,0.264817 -0.03689,0.101205 -0.09725,0.212529 -0.09725,0.332287 v 2.262756 h -0.691679 z m 1.587089,17.659279 c -3.206875,0 -5.218193,-2.241672 -5.218193,-5.819238 0,-3.577566 2.011318,-5.826828 5.218193,-5.826828 3.206875,0 5.210648,2.249262 5.210648,5.826828 0,3.576723 -2.003773,5.819238 -5.210648,5.819238 z m 5.937539,-13.978822 c -0.118214,0.03036 -0.238943,0.04554 -0.363026,0.04554 -0.182771,0 -0.349613,-0.02614 -0.501363,-0.07843 -0.152588,-0.05229 -0.28254,-0.125662 -0.391532,-0.220962 -0.108992,-0.0953 -0.194508,-0.209999 -0.254873,-0.344938 -0.0612,-0.134939 -0.09139,-0.285058 -0.09139,-0.450358 0,-0.323853 0.119891,-0.576864 0.359673,-0.759031 0.239782,-0.182168 0.586879,-0.288432 1.04213,-0.31795 l 0.98931,-0.05735 v -0.285058 c 0,-0.212529 -0.06707,-0.375299 -0.201215,-0.48578 -0.134144,-0.110481 -0.323622,-0.166143 -0.569273,-0.166143 -0.09893,0 -0.191993,0.01265 -0.27751,0.03711 -0.08552,0.0253 -0.160973,0.06072 -0.226368,0.107107 -0.0654,0.04639 -0.119891,0.102048 -0.161811,0.166987 -0.04276,0.0641 -0.0721,0.136626 -0.08803,0.215902 h -0.685811 c 0.0042,-0.16277 0.04444,-0.313732 0.119891,-0.452045 0.07546,-0.138312 0.177741,-0.25807 0.307693,-0.360118 0.129952,-0.102047 0.281702,-0.181324 0.457765,-0.237829 0.176064,-0.05651 0.367219,-0.08518 0.574303,-0.08518 0.223015,0 0.425069,0.02783 0.606163,0.08518 0.181094,0.05735 0.336198,0.137468 0.464473,0.242889 0.128275,0.105421 0.227206,0.231927 0.296793,0.380359 0.06959,0.148433 0.1048,0.314577 0.1048,0.497587 v 2.530947 h -0.698387 v -0.614815 h -0.01761 c -0.05198,0.09952 -0.117376,0.189758 -0.197024,0.269878 -0.08049,0.08012 -0.170195,0.149276 -0.269964,0.205781 -0.100608,0.05651 -0.2096,0.100361 -0.327814,0.130722 z m 4.613708,13.978822 c -2.445609,0 -4.108153,-1.288666 -4.223852,-3.311906 h 1.592119 c 0.124083,1.156257 1.234961,1.922035 2.756654,1.922035 1.459652,0 2.508489,-0.765778 2.508489,-1.812397 0,-0.905777 -0.637183,-1.453123 -2.111926,-1.827578 l -1.437015,-0.359275 c -2.065815,-0.515297 -3.004821,-1.460713 -3.004821,-3.01504 0,-1.913601 1.661706,-3.241905 4.030182,-3.241905 2.31398,0 3.928736,1.335894 3.990778,3.257086 h -1.57619 c -0.108992,-1.156257 -1.047998,-1.867216 -2.446447,-1.867216 -1.390065,0 -2.352547,0.718549 -2.352547,1.757578 0,0.819754 0.605324,1.30469 2.080906,1.679146 l 1.211486,0.304455 c 2.306434,0.562527 3.253825,1.476737 3.253825,3.117088 -8.39e-4,2.093239 -1.646615,3.397929 -4.271641,3.397929 z M 18.734365,22.237003 c -2.197443,0 -3.571578,1.695169 -3.571578,4.389729 0,2.68697 1.374135,4.382139 3.571578,4.382139 2.189897,0 3.571578,-1.695169 3.571578,-4.382139 8.39e-4,-2.69456 -1.381681,-4.389729 -3.571578,-4.389729 z"
       id="path2177" />
  </g>
</svg>
