<?xml version="1.0" encoding="UTF-8" standalone="no"?>
<svg
   xmlns:dc="http://purl.org/dc/elements/1.1/"
   xmlns:cc="http://creativecommons.org/ns#"
   xmlns:rdf="http://www.w3.org/1999/02/22-rdf-syntax-ns#"
   xmlns:svg="http://www.w3.org/2000/svg"
   xmlns="http://www.w3.org/2000/svg"
   xmlns:xlink="http://www.w3.org/1999/xlink"
   xmlns:sodipodi="http://sodipodi.sourceforge.net/DTD/sodipodi-0.dtd"
   xmlns:inkscape="http://www.inkscape.org/namespaces/inkscape"
   sodipodi:docname="bt_web.svg"
   inkscape:version="1.0 (1.0+r73+1)"
   width="139px"
   height="45px"
   viewBox="0 0 139 45"
   version="1.1"
   id="SVGRoot">
  <defs
     id="defs474">
    <marker
       inkscape:isstock="true"
       style="overflow:visible"
       id="DotL"
       refX="0.0"
       refY="0.0"
       orient="auto"
       inkscape:stockid="DotL">
      <path
         transform="scale(0.8) translate(7.4, 1)"
         style="fill-rule:evenodd;stroke:#000000;stroke-width:1.0pt"
         d="M -2.5,-1.0 C -2.5,1.7600000 -4.7400000,4.0 -7.5,4.0 C -10.260000,4.0 -12.5,1.7600000 -12.5,-1.0 C -12.5,-3.7600000 -10.260000,-6.0 -7.5,-6.0 C -4.7400000,-6.0 -2.5,-3.7600000 -2.5,-1.0 z "
         id="path1425" />
    </marker>
    <linearGradient
       id="lg1">
      <stop
         stop-color="#3778ae"
         offset="0"
         id="stop230" />
      <stop
         stop-color="#366c99"
         offset="1"
         id="stop232" />
    </linearGradient>
    <linearGradient
       id="lg2">
      <stop
         stop-color="#fff"
         offset="0"
         id="stop235" />
      <stop
         stop-color="#fff"
         stop-opacity="0.165"
         offset="1"
         id="stop237" />
    </linearGradient>
    <linearGradient
       id="lg3">
      <stop
         stop-color="#ffe253"
         offset="0"
         id="stop240" />
      <stop
         stop-color="#ffca1c"
         offset="1"
         id="stop242" />
    </linearGradient>
    <linearGradient
       id="lg4">
      <stop
         stop-color="#000"
         offset="0"
         id="stop245" />
      <stop
         stop-color="#000"
         stop-opacity="0"
         offset="1"
         id="stop247" />
    </linearGradient>
    <linearGradient
       x1="94.693"
       y1="112.511"
       x2="94.693"
       y2="64.053"
       id="lg5"
       xlink:href="#lg2"
       gradientUnits="userSpaceOnUse"
       gradientTransform="matrix(0.353878,0,0,0.353878,-17.3795,-19.412)" />
    <linearGradient
       x1="59.728"
       y1="102"
       x2="142.62"
       y2="102"
       id="lg6"
       xlink:href="#lg1"
       gradientUnits="userSpaceOnUse"
       gradientTransform="matrix(0.353878,0,0,0.353878,-17.3795,-19.412)" />
    <linearGradient
       x1="94.693"
       y1="112.511"
       x2="94.693"
       y2="64.053"
       id="lg7"
       xlink:href="#lg2"
       gradientUnits="userSpaceOnUse"
       gradientTransform="matrix(0.353878,0,0,0.353878,-6.29697,-7.94537)" />
    <linearGradient
       x1="119.191"
       y1="89.13"
       x2="116.965"
       y2="169.279"
       id="lg8"
       xlink:href="#lg3"
       gradientUnits="userSpaceOnUse"
       gradientTransform="matrix(0.353878,0,0,0.353878,-16.3897,-17.997)" />
    <radialGradient
       cx="15.115"
       cy="63.965"
       r="12.289"
       fx="15.115"
       fy="63.965"
       id="rg1"
       xlink:href="#lg4"
       gradientUnits="userSpaceOnUse"
       gradientTransform="matrix(1.6,0,0,0.551754,-0.183975,4.83575)" />
  </defs>
  <sodipodi:namedview
     inkscape:snap-global="true"
     inkscape:window-maximized="1"
     inkscape:window-y="27"
     inkscape:window-x="0"
     inkscape:window-height="960"
     inkscape:window-width="1280"
     showgrid="false"
     inkscape:document-rotation="0"
     inkscape:current-layer="layer1"
     inkscape:document-units="px"
     inkscape:cy="76.705169"
     inkscape:cx="99.606878"
     inkscape:zoom="3.959798"
     inkscape:pageshadow="2"
     inkscape:pageopacity="0.0"
     borderopacity="1.0"
     bordercolor="#666666"
     pagecolor="#ffffff"
     id="base" />
  <metadata
     id="metadata477">
    <rdf:RDF>
      <cc:Work
         rdf:about="">
        <dc:format>image/svg+xml</dc:format>
        <dc:type
           rdf:resource="http://purl.org/dc/dcmitype/StillImage" />
        <dc:title></dc:title>
      </cc:Work>
    </rdf:RDF>
  </metadata>
  <g
     style="display:inline"
     id="layer1"
     inkscape:groupmode="layer"
     inkscape:label="Calque 1">
    <rect
       ry="5"
       rx="5"
       y="0"
       x="0"
       height="45"
       width="139"
       id="rect1634"
       style="opacity:1;fill:#000000;stroke-width:1;stroke-miterlimit:4;stroke-dasharray:none;paint-order:stroke fill markers" />
    <text
       id="text1640"
       y="19.621374"
       x="71.392044"
       style="font-style:normal;font-variant:normal;font-weight:normal;font-stretch:normal;font-size:16px;line-height:1.25;font-family:'Liberation Mono';-inkscape-font-specification:'Liberation Mono, Normal';font-variant-ligatures:normal;font-variant-caps:normal;font-variant-numeric:normal;font-variant-east-asian:normal;fill:#ffffff;fill-opacity:1;stroke:none"
       xml:space="preserve"><tspan
         y="19.621374"
         x="71.392044"
         id="tspan1638"
         sodipodi:role="line">Web</tspan></text>
    <text
       id="text1644"
       y="38.512962"
       x="68.337189"
       style="font-style:normal;font-variant:normal;font-weight:normal;font-stretch:normal;font-size:17.3333px;line-height:1.25;font-family:sans-serif;-inkscape-font-specification:'sans-serif, Normal';font-variant-ligatures:normal;font-variant-caps:normal;font-variant-numeric:normal;font-variant-east-asian:normal;fill:#ffffff;fill-opacity:1;stroke:none"
       xml:space="preserve"><tspan
         y="38.512962"
         x="68.337189"
         id="tspan1642"
         sodipodi:role="line">Link</tspan></text>
    <g
       transform="matrix(0.25297743,0,0,0.24772384,10.78218,5.5578522)"
       id="g527">
      <g
         id="XMLID_46_">
	<path
   id="XMLID_69_"
   class="st0"
   d="m 55.3,14.3 c 3.8,-3.2 8.4,-5.6 13.4,-6 0,7 0,13.9 0,20.9 -8.1,0 -16.3,0 -24.4,0 2.7,-5.6 6.3,-10.9 11,-14.9 m 17.2,-6 c 4.8,0.5 9.2,2.9 12.9,5.9 4.7,4.1 8.3,9.3 11.1,14.9 -8,0 -15.9,0 -23.9,0 C 72.5,22.2 72.5,15.3 72.5,8.3 m -22.7,3.6 c 1.8,-0.7 3.7,-1.3 5.6,-1.9 -6.7,4.8 -11.4,11.8 -14.8,19.1 -5,0 -9.9,0 -14.9,0 1.6,-1.8 3.2,-3.7 5,-5.3 5.5,-5.2 12.1,-9.1 19.1,-11.9 M 85.3,10 c 8.6,2.5 16.8,6.7 23.5,12.7 1.2,1.2 2.5,2.2 3.7,3.5 0.8,1 1.8,1.8 2.6,2.9 -5,0 -9.9,0 -14.9,0 C 98,24.4 95.3,19.9 91.9,16 89.9,13.8 87.8,11.7 85.3,10 M 22.8,33 c 5.4,0 10.8,0 16.2,0 -2.2,5.6 -3.7,11.4 -4.7,17.4 -6.6,0 -13.2,0 -19.8,0 1.8,-6.2 4.6,-12.1 8.3,-17.4 m 19.4,0.8 c 0.2,-0.3 0.2,-0.9 0.7,-0.8 8.6,0 17.2,0 25.8,0 0,5.8 0,11.6 0,17.4 -10.4,0 -20.8,0 -31.1,0 0.9,-5.7 2.5,-11.3 4.6,-16.6 M 72.5,33 c 8.6,0 17.2,-0.1 25.7,0 2.2,5.6 4,11.4 4.9,17.3 -10.2,0 -20.4,0 -30.6,0 0,-5.8 0,-11.5 0,-17.3 m 29.3,0 c 5.4,0 10.8,0 16.2,0 3.7,5.3 6.5,11.2 8.3,17.4 -6.6,0 -13.2,0 -19.8,0 -1,-6 -2.5,-11.8 -4.7,-17.4 M 13.3,77.1 C 12,69.5 12,61.7 13.6,54.1 c 6.7,0 13.5,0 20.2,0 -0.9,7.6 -1,15.3 -0.1,23 -6.9,0 -13.7,0 -20.4,0 m 23.6,0 c -0.8,-7.6 -0.8,-15.3 0.1,-23 10.6,0 21.1,0 31.7,0 0,7.7 0,15.3 0,23 -10.6,0 -21.2,0 -31.8,0 M 72.5,54.2 c 10.4,0 20.8,0 31.2,0 0.9,7.6 1,15.3 0.2,23 -10.4,0 -20.9,0 -31.3,0 -0.1,-7.7 -0.1,-15.4 -0.1,-23 m 34.5,0 c 6.7,0 13.5,0 20.2,0 1.5,7.6 1.6,15.4 0.2,23 -6.8,0 -13.5,0 -20.3,0 0.9,-7.7 0.9,-15.4 -0.1,-23 M 14.1,81 c 6.6,0 13.3,0 19.9,0 0.9,5.9 2.3,11.7 4.4,17.4 -5.5,0 -11,0 -16.5,0 C 18.4,93 15.8,87.1 14.1,81 m 23.3,0 c 10.4,0 20.9,0 31.3,0 0,5.8 0,11.6 0,17.4 -8.9,0 -17.8,0 -26.7,0 C 39.8,92.7 38.2,86.9 37.4,81 m 35.1,0 c 10.3,0 20.5,0 30.8,0 -0.8,5.9 -2.5,11.7 -4.6,17.3 -8.7,0.1 -17.5,0 -26.2,0 0,-5.8 0,-11.6 0,-17.3 m 29.8,17.3 c 2.1,-5.6 3.5,-11.4 4.4,-17.4 6.6,0 13.3,0 19.9,0 -1.7,6.1 -4.3,12.1 -7.8,17.4 -5.5,0 -11,0 -16.5,0 m -77.6,3.8 c 5.1,0 10.2,0 15.4,0 2.8,6.3 6.5,12.3 11.5,17.1 1.2,1.2 2.5,2.3 3.9,3.2 -6.1,-1.8 -12,-4.4 -17.3,-7.9 -5.2,-3.3 -9.7,-7.6 -13.5,-12.4 m 19,0 c 8.3,0 16.7,0 25,0 0,7.4 0,14.8 0,22.1 -4,-0.2 -7.8,-2 -11.1,-4.2 -6.2,-4.4 -10.7,-10.9 -13.9,-17.9 m 28.8,0 c 8.2,0 16.4,0 24.5,0 -2.4,5 -5.3,9.8 -9.2,13.8 -2.9,3 -6.3,5.6 -10.3,7.1 -1.6,0.7 -3.3,1.1 -5.1,1.2 0.1,-7.3 0.1,-14.7 0.1,-22.1 m 28.2,0.1 c 5.1,-0.1 10.2,0 15.4,0 -3.3,4.1 -7.1,7.8 -11.3,11 -4.5,3.3 -9.5,6 -14.8,7.9 -1.5,0.6 -3.1,1 -4.6,1.5 2.9,-2 5.3,-4.5 7.6,-7.2 3.1,-4.1 5.7,-8.6 7.7,-13.2 z" />

	<path
   id="XMLID_47_"
   class="st1"
   d="m 65.3,5.1 c 8.1,-0.7 16.3,0.3 24,2.8 14.5,4.6 27.1,14.9 34.5,28.2 5.9,10.3 8.6,22.4 7.8,34.2 -0.6,9.9 -3.7,19.6 -8.9,28 -4.9,8 -11.7,14.9 -19.6,19.9 -7.8,4.9 -16.6,8.1 -25.8,9.1 -11.8,1.4 -24.1,-0.8 -34.7,-6.2 C 34.9,117.2 28,111.6 22.5,104.9 16.6,97.7 12.5,89.1 10.4,80 7.8,68.4 8.6,56 12.8,44.8 17.1,33.4 24.8,23.3 34.8,16.3 43.8,9.9 54.4,6 65.3,5.1 m -10,9.2 c -4.7,4.1 -8.3,9.3 -11.1,14.9 8.1,0 16.3,0 24.4,0 0,-7 0,-13.9 0,-20.9 -4.9,0.3 -9.5,2.8 -13.3,6 m 17.2,-6 c 0,6.9 0,13.9 0,20.8 8,0 15.9,0 23.9,0 -2.7,-5.6 -6.3,-10.8 -11.1,-14.9 -3.5,-3 -8,-5.4 -12.8,-5.9 m -22.7,3.6 c -7,2.7 -13.6,6.7 -19,11.9 -1.8,1.6 -3.4,3.5 -5,5.3 5,0 9.9,0 14.9,0 3.3,-7.3 8,-14.3 14.7,-19.1 -1.9,0.7 -3.8,1.2 -5.6,1.9 M 85.3,10 c 2.4,1.7 4.6,3.7 6.5,5.9 3.4,3.9 6.1,8.4 8.3,13.1 5,0 9.9,0 14.9,0 -0.8,-1 -1.8,-1.9 -2.6,-2.9 -1.1,-1.3 -2.4,-2.3 -3.7,-3.5 C 102.1,16.7 93.9,12.5 85.3,10 M 22.8,33 c -3.7,5.3 -6.5,11.2 -8.3,17.4 6.6,0 13.2,0 19.8,0 1,-5.9 2.5,-11.8 4.7,-17.4 -5.4,0 -10.8,0 -16.2,0 m 19.4,0.8 c -2.1,5.3 -3.7,10.9 -4.6,16.6 10.4,0 20.8,0 31.1,0 0,-5.8 0,-11.6 0,-17.4 -8.6,0 -17.2,0 -25.8,0 -0.5,-0.1 -0.6,0.4 -0.7,0.8 M 72.5,33 c 0,5.8 0,11.6 0,17.4 10.2,0 20.4,0 30.6,0 C 102.2,44.5 100.4,38.7 98.2,33.1 89.7,32.9 81.1,33 72.5,33 m 29.3,0 c 2.2,5.6 3.7,11.4 4.7,17.4 6.6,0 13.2,0 19.8,0 -1.8,-6.2 -4.6,-12.1 -8.3,-17.4 -5.4,0 -10.8,0 -16.2,0 M 13.3,77.1 c 6.8,0 13.5,0 20.3,0 -0.8,-7.6 -0.8,-15.4 0.1,-23 -6.7,0 -13.5,0 -20.2,0 -1.5,7.6 -1.6,15.4 -0.2,23 m 23.6,0 c 10.6,0 21.2,0 31.8,0 0,-7.7 0,-15.3 0,-23 -10.6,0 -21.1,0 -31.7,0 -0.9,7.7 -0.9,15.4 -0.1,23 M 72.5,54.2 c 0,7.7 0,15.3 0,23 10.4,0 20.9,0 31.3,0 0.8,-7.6 0.8,-15.3 -0.2,-23 -10.3,0 -20.7,0 -31.1,0 m 34.5,0 c 0.9,7.6 1,15.3 0.1,23 6.8,0 13.5,0 20.3,0 1.4,-7.6 1.3,-15.4 -0.2,-23 -6.7,0 -13.4,0 -20.2,0 M 14.1,81 c 1.7,6.1 4.3,12.1 7.8,17.4 5.5,0 11,0 16.5,0 C 36.3,92.8 34.9,87 34,81 27.4,81 20.8,80.9 14.1,81 m 23.3,0 c 0.8,5.9 2.4,11.7 4.6,17.3 8.9,0.1 17.8,0 26.7,0 0,-5.8 0,-11.6 0,-17.4 C 58.3,81 47.8,81 37.4,81 m 35.1,0 c 0,5.8 0,11.6 0,17.4 8.7,0 17.5,0.1 26.2,0 2.1,-5.6 3.7,-11.4 4.6,-17.3 C 93.1,81 82.8,81 72.5,81 m 29.8,17.3 c 5.5,0 11,0 16.5,0 3.5,-5.3 6.2,-11.2 7.8,-17.4 -6.6,0 -13.3,0 -19.9,0 -0.9,6 -2.3,11.8 -4.4,17.4 m -77.6,3.8 c 3.8,4.8 8.3,9.1 13.4,12.4 5.3,3.6 11.2,6.1 17.3,7.9 -1.4,-0.9 -2.7,-2.1 -3.9,-3.2 -5,-4.8 -8.7,-10.8 -11.5,-17.1 -5.1,0 -10.2,0 -15.3,0 m 19,0 c 3.2,6.9 7.7,13.4 14,17.9 3.3,2.2 7.1,4 11.1,4.2 0,-7.4 0,-14.8 0,-22.1 -8.4,0 -16.8,0 -25.1,0 m 28.8,0 c 0,7.4 0,14.7 0,22.1 1.7,-0.1 3.5,-0.6 5.1,-1.2 3.9,-1.5 7.4,-4 10.3,-7.1 3.9,-4 6.8,-8.8 9.2,-13.8 -8.2,0 -16.4,0 -24.6,0 m 28.2,0.1 c -2,4.7 -4.6,9.1 -7.8,13.1 -2.2,2.7 -4.7,5.2 -7.6,7.2 1.5,-0.5 3.1,-1 4.6,-1.5 5.3,-1.9 10.3,-4.6 14.8,-7.9 4.2,-3.2 8,-6.8 11.3,-11 -5.1,0 -10.2,0 -15.3,0.1 z" />

</g>
      <g
         id="Form_1_Kopie_4_1_"
         class="st2">
	<g
   id="XMLID_44_">
		<path
   id="XMLID_1_"
   class="st3"
   d="m 81.8,116.6 1.3,-51.4 35.9,37.8 -16.3,-0.4 12,24.2 -8,3.9 -12.8,-25.1 z" />

	</g>

</g>
    </g>
  </g>
  <style
     type="text/css"
     id="style505">
	.st0{fill:#FFFFFF;}
	.st1{fill:#353535;}
	.st2{enable-background:new    ;}
	.st3{fill:#FFFFFF;stroke:#353535;stroke-width:4;stroke-miterlimit:10;}
</style>
</svg>
