<?xml version="1.0" encoding="utf-8"?>
<!-- Generator: Adobe Illustrator 19.0.0, SVG Export Plug-In . SVG Version: 6.00 Build 0)  -->
<svg version="1.1" id="Ebene_1" xmlns="http://www.w3.org/2000/svg" xmlns:xlink="http://www.w3.org/1999/xlink" x="0px" y="0px"
	 viewBox="0 0 141.7 141.7" style="enable-background:new 0 0 141.7 141.7;" xml:space="preserve">
<style type="text/css">
	.st0{fill:#FFFFFF;}
	.st1{fill:#353535;}
	.st2{enable-background:new    ;}
	.st3{fill:#FFFFFF;stroke:#353535;stroke-width:4;stroke-miterlimit:10;}
</style>
<g id="XMLID_46_">
	<path id="XMLID_69_" class="st0" d="M55.3,14.3c3.8-3.2,8.4-5.6,13.4-6c0,7,0,13.9,0,20.9c-8.1,0-16.3,0-24.4,0
		C47,23.6,50.6,18.3,55.3,14.3 M72.5,8.3c4.8,0.5,9.2,2.9,12.9,5.9c4.7,4.1,8.3,9.3,11.1,14.9c-8,0-15.9,0-23.9,0
		C72.5,22.2,72.5,15.3,72.5,8.3 M49.8,11.9c1.8-0.7,3.7-1.3,5.6-1.9C48.7,14.8,44,21.8,40.6,29.1c-5,0-9.9,0-14.9,0
		c1.6-1.8,3.2-3.7,5-5.3C36.2,18.6,42.8,14.7,49.8,11.9 M85.3,10c8.6,2.5,16.8,6.7,23.5,12.7c1.2,1.2,2.5,2.2,3.7,3.5
		c0.8,1,1.8,1.8,2.6,2.9c-5,0-9.9,0-14.9,0c-2.2-4.7-4.9-9.2-8.3-13.1C89.9,13.8,87.8,11.7,85.3,10 M22.8,33c5.4,0,10.8,0,16.2,0
		c-2.2,5.6-3.7,11.4-4.7,17.4c-6.6,0-13.2,0-19.8,0C16.3,44.2,19.1,38.3,22.8,33 M42.2,33.8c0.2-0.3,0.2-0.9,0.7-0.8
		c8.6,0,17.2,0,25.8,0c0,5.8,0,11.6,0,17.4c-10.4,0-20.8,0-31.1,0C38.5,44.7,40.1,39.1,42.2,33.8 M72.5,33c8.6,0,17.2-0.1,25.7,0
		c2.2,5.6,4,11.4,4.9,17.3c-10.2,0-20.4,0-30.6,0C72.5,44.5,72.5,38.8,72.5,33 M101.8,33c5.4,0,10.8,0,16.2,0
		c3.7,5.3,6.5,11.2,8.3,17.4c-6.6,0-13.2,0-19.8,0C105.5,44.4,104,38.6,101.8,33 M13.3,77.1c-1.3-7.6-1.3-15.4,0.3-23
		c6.7,0,13.5,0,20.2,0c-0.9,7.6-1,15.3-0.1,23C26.8,77.1,20,77.1,13.3,77.1 M36.9,77.1c-0.8-7.6-0.8-15.3,0.1-23
		c10.6,0,21.1,0,31.7,0c0,7.7,0,15.3,0,23C58.1,77.1,47.5,77.1,36.9,77.1 M72.5,54.2c10.4,0,20.8,0,31.2,0c0.9,7.6,1,15.3,0.2,23
		c-10.4,0-20.9,0-31.3,0C72.5,69.5,72.5,61.8,72.5,54.2 M107,54.2c6.7,0,13.5,0,20.2,0c1.5,7.6,1.6,15.4,0.2,23
		c-6.8,0-13.5,0-20.3,0C108,69.5,108,61.8,107,54.2 M14.1,81c6.6,0,13.3,0,19.9,0c0.9,5.9,2.3,11.7,4.4,17.4c-5.5,0-11,0-16.5,0
		C18.4,93,15.8,87.1,14.1,81 M37.4,81c10.4,0,20.9,0,31.3,0c0,5.8,0,11.6,0,17.4c-8.9,0-17.8,0-26.7,0C39.8,92.7,38.2,86.9,37.4,81
		 M72.5,81c10.3,0,20.5,0,30.8,0c-0.8,5.9-2.5,11.7-4.6,17.3c-8.7,0.1-17.5,0-26.2,0C72.5,92.5,72.5,86.7,72.5,81 M102.3,98.3
		c2.1-5.6,3.5-11.4,4.4-17.4c6.6,0,13.3,0,19.9,0c-1.7,6.1-4.3,12.1-7.8,17.4C113.3,98.3,107.8,98.3,102.3,98.3 M24.7,102.1
		c5.1,0,10.2,0,15.4,0c2.8,6.3,6.5,12.3,11.5,17.1c1.2,1.2,2.5,2.3,3.9,3.2c-6.1-1.8-12-4.4-17.3-7.9
		C33,111.2,28.5,106.9,24.7,102.1 M43.7,102.1c8.3,0,16.7,0,25,0c0,7.4,0,14.8,0,22.1c-4-0.2-7.8-2-11.1-4.2
		C51.4,115.6,46.9,109.1,43.7,102.1 M72.5,102.1c8.2,0,16.4,0,24.5,0c-2.4,5-5.3,9.8-9.2,13.8c-2.9,3-6.3,5.6-10.3,7.1
		c-1.6,0.7-3.3,1.1-5.1,1.2C72.5,116.9,72.5,109.5,72.5,102.1 M100.7,102.2c5.1-0.1,10.2,0,15.4,0c-3.3,4.1-7.1,7.8-11.3,11
		c-4.5,3.3-9.5,6-14.8,7.9c-1.5,0.6-3.1,1-4.6,1.5c2.9-2,5.3-4.5,7.6-7.2C96.1,111.3,98.7,106.8,100.7,102.2L100.7,102.2z"/>
	<path id="XMLID_47_" class="st1" d="M65.3,5.1c8.1-0.7,16.3,0.3,24,2.8c14.5,4.6,27.1,14.9,34.5,28.2c5.9,10.3,8.6,22.4,7.8,34.2
		c-0.6,9.9-3.7,19.6-8.9,28c-4.9,8-11.7,14.9-19.6,19.9c-7.8,4.9-16.6,8.1-25.8,9.1c-11.8,1.4-24.1-0.8-34.7-6.2
		c-7.7-3.9-14.6-9.5-20.1-16.2c-5.9-7.2-10-15.8-12.1-24.9c-2.6-11.6-1.8-24,2.4-35.2c4.3-11.4,12-21.5,22-28.5
		C43.8,9.9,54.4,6,65.3,5.1 M55.3,14.3c-4.7,4.1-8.3,9.3-11.1,14.9c8.1,0,16.3,0,24.4,0c0-7,0-13.9,0-20.9
		C63.7,8.6,59.1,11.1,55.3,14.3 M72.5,8.3c0,6.9,0,13.9,0,20.8c8,0,15.9,0,23.9,0c-2.7-5.6-6.3-10.8-11.1-14.9
		C81.8,11.2,77.3,8.8,72.5,8.3 M49.8,11.9c-7,2.7-13.6,6.7-19,11.9c-1.8,1.6-3.4,3.5-5,5.3c5,0,9.9,0,14.9,0
		C44,21.8,48.7,14.8,55.4,10C53.5,10.7,51.6,11.2,49.8,11.9 M85.3,10c2.4,1.7,4.6,3.7,6.5,5.9c3.4,3.9,6.1,8.4,8.3,13.1
		c5,0,9.9,0,14.9,0c-0.8-1-1.8-1.9-2.6-2.9c-1.1-1.3-2.4-2.3-3.7-3.5C102.1,16.7,93.9,12.5,85.3,10 M22.8,33
		c-3.7,5.3-6.5,11.2-8.3,17.4c6.6,0,13.2,0,19.8,0c1-5.9,2.5-11.8,4.7-17.4C33.6,33,28.2,33,22.8,33 M42.2,33.8
		c-2.1,5.3-3.7,10.9-4.6,16.6c10.4,0,20.8,0,31.1,0c0-5.8,0-11.6,0-17.4c-8.6,0-17.2,0-25.8,0C42.4,32.9,42.3,33.4,42.2,33.8
		 M72.5,33c0,5.8,0,11.6,0,17.4c10.2,0,20.4,0,30.6,0c-0.9-5.9-2.7-11.7-4.9-17.3C89.7,32.9,81.1,33,72.5,33 M101.8,33
		c2.2,5.6,3.7,11.4,4.7,17.4c6.6,0,13.2,0,19.8,0c-1.8-6.2-4.6-12.1-8.3-17.4C112.6,33,107.2,33,101.8,33 M13.3,77.1
		c6.8,0,13.5,0,20.3,0c-0.8-7.6-0.8-15.4,0.1-23c-6.7,0-13.5,0-20.2,0C12,61.7,11.9,69.5,13.3,77.1 M36.9,77.1c10.6,0,21.2,0,31.8,0
		c0-7.7,0-15.3,0-23c-10.6,0-21.1,0-31.7,0C36.1,61.8,36.1,69.5,36.9,77.1 M72.5,54.2c0,7.7,0,15.3,0,23c10.4,0,20.9,0,31.3,0
		c0.8-7.6,0.8-15.3-0.2-23C93.3,54.2,82.9,54.2,72.5,54.2 M107,54.2c0.9,7.6,1,15.3,0.1,23c6.8,0,13.5,0,20.3,0
		c1.4-7.6,1.3-15.4-0.2-23C120.5,54.2,113.8,54.2,107,54.2 M14.1,81c1.7,6.1,4.3,12.1,7.8,17.4c5.5,0,11,0,16.5,0
		c-2.1-5.6-3.5-11.4-4.4-17.4C27.4,81,20.8,80.9,14.1,81 M37.4,81c0.8,5.9,2.4,11.7,4.6,17.3c8.9,0.1,17.8,0,26.7,0
		c0-5.8,0-11.6,0-17.4C58.3,81,47.8,81,37.4,81 M72.5,81c0,5.8,0,11.6,0,17.4c8.7,0,17.5,0.1,26.2,0c2.1-5.6,3.7-11.4,4.6-17.3
		C93.1,81,82.8,81,72.5,81 M102.3,98.3c5.5,0,11,0,16.5,0c3.5-5.3,6.2-11.2,7.8-17.4c-6.6,0-13.3,0-19.9,0
		C105.8,86.9,104.4,92.7,102.3,98.3 M24.7,102.1c3.8,4.8,8.3,9.1,13.4,12.4c5.3,3.6,11.2,6.1,17.3,7.9c-1.4-0.9-2.7-2.1-3.9-3.2
		c-5-4.8-8.7-10.8-11.5-17.1C34.9,102.1,29.8,102.1,24.7,102.1 M43.7,102.1c3.2,6.9,7.7,13.4,14,17.9c3.3,2.2,7.1,4,11.1,4.2
		c0-7.4,0-14.8,0-22.1C60.4,102.1,52,102.1,43.7,102.1 M72.5,102.1c0,7.4,0,14.7,0,22.1c1.7-0.1,3.5-0.6,5.1-1.2
		c3.9-1.5,7.4-4,10.3-7.1c3.9-4,6.8-8.8,9.2-13.8C88.9,102.1,80.7,102.1,72.5,102.1 M100.7,102.2c-2,4.7-4.6,9.1-7.8,13.1
		c-2.2,2.7-4.7,5.2-7.6,7.2c1.5-0.5,3.1-1,4.6-1.5c5.3-1.9,10.3-4.6,14.8-7.9c4.2-3.2,8-6.8,11.3-11
		C110.9,102.1,105.8,102.1,100.7,102.2L100.7,102.2z"/>
</g>
<g id="Form_1_Kopie_4_1_" class="st2">
	<g id="XMLID_44_">
		<path id="XMLID_1_" class="st3" d="M81.8,116.6l1.3-51.4L119,103l-16.3-0.4l12,24.2l-8,3.9l-12.8-25.1L81.8,116.6z"/>
	</g>
</g>
</svg>
